<!-- This Source Code Form is subject to the terms of the Mozilla Public
   - License, v. 2.0. If a copy of the MPL was not distributed with this
   - file, You can obtain one at http://mozilla.org/MPL/2.0/. -->
<!-- Source: Mozilla Firefox browser/themes/shared/icons/screenshot.svg @ 023cb8315420edf23536fc0fde97d5717e72f5b1. Terminus adaptation: Firefox Nova geometry where available and fixed mask paint. -->
<svg xmlns="http://www.w3.org/2000/svg" width="16" height="16" viewBox="0 0 16 16" fill="#000" fill-opacity="1">
  <path fill-rule="evenodd" d="M8 5.25a3.5 3.5 0 1 1 0 7 3.5 3.5 0 0 1 0-7Zm0 1.5a2 2 0 1 0 0 4 2 2 0 0 0 0-4Z" clip-rule="evenodd"/>
  <path fill-rule="evenodd" d="M10 1c.199 0 .39.08.53.22L12.31 3H14a2 2 0 0 1 2 2v8a2 2 0 0 1-2 2H2a2 2 0 0 1-2-2V5a2 2 0 0 1 2-2h1.69l1.78-1.78.114-.094A.75.75 0 0 1 6 1h4ZM4.53 4.28A.75.75 0 0 1 4 4.5H2a.5.5 0 0 0-.5.5v8a.5.5 0 0 0 .5.5h12a.5.5 0 0 0 .5-.5V5a.5.5 0 0 0-.5-.5h-2a.75.75 0 0 1-.53-.22L9.69 2.5H6.31L4.53 4.28Z" clip-rule="evenodd"/>
</svg>
